G04 Layer_Physical_Order=2*
G04 Layer_Color=16711680*
%FSLAX45Y45*%
%MOMM*%
%TF.FileFunction,Copper,L2,Bot,Signal*%
%TF.Part,Single*%
G01*
G75*
%TA.AperFunction,Conductor*%
%ADD11C,0.25400*%
%TA.AperFunction,ComponentPad*%
%ADD12R,1.50000X1.50000*%
%ADD13C,1.50000*%
%TA.AperFunction,ViaPad*%
%ADD14C,1.27000*%
D11*
X24889998Y11620000D02*
X28929999D01*
X18139999D02*
X24889998D01*
X16789984D02*
X18139999D01*
X24899998Y13650000D02*
X28939996D01*
X18149998D02*
X24899998D01*
X15449998D02*
X18149998D01*
X12003749D02*
X15449998D01*
X11160000Y13410001D02*
X11410000Y13660001D01*
X10030000Y13650000D02*
X10270000Y13410001D01*
X26269998Y15630000D02*
X28959998D01*
X20870000D02*
X26269998D01*
X18170000D02*
X20870000D01*
X15470000D02*
X18170000D01*
X12770000D02*
X15470000D01*
X8720000D02*
X12770000D01*
X26249997Y17620000D02*
X28939996D01*
X22199998D02*
X26249997D01*
X19499998D02*
X22199998D01*
X16799998D02*
X19499998D01*
X9600000D02*
X16799998D01*
X26249997Y19620000D02*
X28939996D01*
X20849998D02*
X26249997D01*
X18149998D02*
X20849998D01*
X9540000D02*
X18149998D01*
X26249997Y21630000D02*
X28939996D01*
X20849998D02*
X26249997D01*
X18149998D02*
X20849998D01*
X15449998D02*
X18149998D01*
X10050000D02*
X15449998D01*
X9440000D02*
X10050000D01*
X26269998Y23639999D02*
X28959998D01*
X20870000D02*
X26269998D01*
X18170000D02*
X20870000D01*
X15470000D02*
X18170000D01*
X10070000D02*
X15470000D01*
X9540000D02*
X10070000D01*
X11410000Y26629999D02*
X11470000D01*
X26259998Y25629999D02*
X28949997D01*
X20859999D02*
X26259998D01*
X16809999D02*
X20859999D01*
X11410000D02*
X16809999D01*
X8710000D02*
X11410000D01*
X10420000Y11630000D02*
Y12620000D01*
Y13630000D02*
Y14630000D01*
X10251275Y11399350D02*
X10841847Y11400225D01*
X10040000Y11610000D02*
X10251275Y11399350D01*
X11052497Y11611500D02*
X11389997Y11612000D01*
X10841847Y11400225D02*
X11052497Y11611500D01*
X15439987Y11618000D02*
X16789984Y11620000D01*
X14089990Y11616000D02*
X15439987Y11618000D01*
X12739994Y11614000D02*
X14089990Y11616000D01*
X11389997Y11612000D02*
X12739994Y11614000D01*
X10330000Y12830000D02*
X10872500D01*
X10120000Y12620000D02*
X10330000Y12830000D01*
X10070000Y12620000D02*
X10120000D01*
X11082500D02*
X11420000D01*
X10872500Y12830000D02*
X11082500Y12620000D01*
X10270000Y13410001D02*
X11160000D01*
X9470000Y13650000D02*
X10030000D01*
X11993749Y13660001D02*
X12003749Y13650000D01*
X11410000Y13660001D02*
X11993749D01*
X10280000Y14860001D02*
X10812500D01*
X10040000Y14620000D02*
X10280000Y14860001D01*
X11052500Y14620000D02*
X11390000D01*
X10812500Y14860001D02*
X11052500Y14620000D01*
X8570000Y13120000D02*
Y13820000D01*
Y12130000D02*
Y13120000D01*
X8580000D01*
X9070000Y12630000D01*
Y14320000D02*
Y14620000D01*
Y13639999D02*
Y14320000D01*
X8570000Y12130000D02*
X9070000Y11630000D01*
X8570000Y13820000D02*
X9070000Y14320000D01*
Y13639999D02*
X9080000Y13630000D01*
X9060000Y16630000D02*
X9070000Y16639999D01*
Y17620000D01*
Y18639999D02*
X9080000Y18650000D01*
Y19620000D01*
X9070000Y20630000D02*
Y21630000D01*
X8750000Y20620000D02*
X8980000Y20389999D01*
X9485000D01*
X9070000Y22630000D02*
Y23630000D01*
X9390000Y11620000D02*
X10040000Y11610000D01*
X8690000Y11620000D02*
X8870000Y11440000D01*
X9210000D01*
X9390000Y11620000D01*
X8970000Y12380000D02*
X9495000D01*
X9735000Y12620000D02*
X10070000D01*
X9495000Y12380000D02*
X9735000Y12620000D01*
X8700000Y13650000D02*
X8950000Y13400000D01*
X9220000D01*
X9470000Y13650000D01*
X8690000Y14630000D02*
X8950000Y14889999D01*
X9370000D01*
X9640000Y14620000D01*
X10040000D01*
X8950000Y16380000D02*
X9475000D01*
X9715000Y16620000D02*
X10050000D01*
X9475000Y16380000D02*
X9715000Y16620000D01*
X8700000Y17620000D02*
X8950000Y17870000D01*
X9350000D01*
X9600000Y17620000D01*
X8920000Y18400000D02*
X9485000D01*
X9705000Y18620000D02*
X10040000D01*
X9485000Y18400000D02*
X9705000Y18620000D01*
X8700000Y19620000D02*
X8970000Y19889999D01*
X9270000D01*
X9540000Y19620000D01*
X9485000Y20389999D02*
X9715000Y20620000D01*
X8710000D02*
X8750000D01*
X9715000D02*
X10050000D01*
X8700000Y21630000D02*
X8920000Y21850000D01*
X9220000D01*
X9440000Y21630000D01*
X9535000Y22430000D02*
X9735000Y22630000D01*
X9000000Y22430000D02*
X9535000D01*
X8800000Y22630000D02*
X9000000Y22430000D01*
X8730000Y22630000D02*
X8800000D01*
X9735000D02*
X10070000D01*
X8720000Y22639999D02*
X8730000Y22630000D01*
X8720000Y23639999D02*
X9000000Y23920000D01*
X9260000D01*
X9540000Y23639999D01*
X14120000Y26620001D02*
X15470000D01*
X16820000D02*
X18170000D01*
X19520000D02*
X20870000D01*
X22219998D02*
X23569998D01*
X24919998D02*
X26269998D01*
X28749997Y26400000D02*
X28969998Y26620001D01*
X27839999Y26400000D02*
X28749997D01*
X27619998Y26620001D02*
X27839999Y26400000D01*
X28929999Y11620000D02*
X28939996Y11610000D01*
X27619998Y12620000D02*
X28969998D01*
X26269998D02*
X27619998D01*
X24919998D02*
X26269998D01*
X23569998D02*
X24919998D01*
X22219998D02*
X23569998D01*
X20870000D02*
X22219998D01*
X19520000D02*
X20870000D01*
X18170000D02*
X19520000D01*
X16820000D02*
X18170000D01*
X15470000D02*
X16820000D01*
X14120000D02*
X15470000D01*
X12770000D02*
X14120000D01*
X11420000D02*
X12770000D01*
X8720000Y12630000D02*
X8970000Y12380000D01*
X28939996Y13650000D02*
X28949997Y13639999D01*
X27589999Y14620000D02*
X28939996D01*
X26239999D02*
X27589999D01*
X24889998D02*
X26239999D01*
X23539998D02*
X24889998D01*
X22189998D02*
X23539998D01*
X20839998D02*
X22189998D01*
X19489999D02*
X20839998D01*
X18139999D02*
X19489999D01*
X16789999D02*
X18139999D01*
X15439999D02*
X16789999D01*
X14089999D02*
X15439999D01*
X12739999D02*
X14089999D01*
X11390000D02*
X12739999D01*
X28959998Y15630000D02*
X28969998Y15620000D01*
X27599997Y16620000D02*
X28949997D01*
X26249997D02*
X27599997D01*
X24899998D02*
X26249997D01*
X23549998D02*
X24899998D01*
X22199998D02*
X23549998D01*
X20849998D02*
X22199998D01*
X19499998D02*
X20849998D01*
X18149998D02*
X19499998D01*
X16799998D02*
X18149998D01*
X15449998D02*
X16799998D01*
X14099998D02*
X15449998D01*
X12749999D02*
X14099998D01*
X11400000D02*
X12749999D01*
X10050000D02*
X11400000D01*
X8700000Y16630000D02*
X8950000Y16380000D01*
X28939996Y17620000D02*
X28949997Y17610001D01*
X27589999Y18620000D02*
X28939996D01*
X26239999D02*
X27589999D01*
X24889998D02*
X26239999D01*
X23539998D02*
X24889998D01*
X22189998D02*
X23539998D01*
X20839998D02*
X22189998D01*
X19489999D02*
X20839998D01*
X18139999D02*
X19489999D01*
X16789999D02*
X18139999D01*
X15439999D02*
X16789999D01*
X14089999D02*
X15439999D01*
X12739999D02*
X14089999D01*
X11390000D02*
X12739999D01*
X10040000D02*
X11390000D01*
X8690000Y18630000D02*
X8920000Y18400000D01*
X28939996Y19620000D02*
X28949997Y19610001D01*
X27599997Y20620000D02*
X28949997D01*
X26249997D02*
X27599997D01*
X24899998D02*
X26249997D01*
X23549998D02*
X24899998D01*
X22199998D02*
X23549998D01*
X20849998D02*
X22199998D01*
X19499998D02*
X20849998D01*
X18149998D02*
X19499998D01*
X16799998D02*
X18149998D01*
X15449998D02*
X16799998D01*
X14099998D02*
X15449998D01*
X12749999D02*
X14099998D01*
X11400000D02*
X12749999D01*
X10050000D02*
X11400000D01*
X8700000Y20630000D02*
X8710000Y20620000D01*
X28939996Y21630000D02*
X28949997Y21620000D01*
X27619998Y22630000D02*
X28969998D01*
X26269998D02*
X27619998D01*
X24919998D02*
X26269998D01*
X23569998D02*
X24919998D01*
X22219998D02*
X23569998D01*
X20870000D02*
X22219998D01*
X19520000D02*
X20870000D01*
X18170000D02*
X19520000D01*
X16820000D02*
X18170000D01*
X15470000D02*
X16820000D01*
X14120000D02*
X15470000D01*
X12770000D02*
X14120000D01*
X11420000D02*
X12770000D01*
X10070000D02*
X11420000D01*
X28959998Y23639999D02*
X28969998Y23630000D01*
X27589999Y24620000D02*
X28939996D01*
X26239999D02*
X27589999D01*
X24889998D02*
X26239999D01*
X23539998D02*
X24889998D01*
X22189998D02*
X23539998D01*
X20839998D02*
X22189998D01*
X19489999D02*
X20839998D01*
X18139999D02*
X19489999D01*
X16789999D02*
X18139999D01*
X15439999D02*
X16789999D01*
X14089999D02*
X15439999D01*
X12739999D02*
X14089999D01*
X11390000D02*
X12739999D01*
X10040000D02*
X11390000D01*
X8700000D02*
X10040000D01*
X8690000Y24630000D02*
X8700000Y24620000D01*
X28949997Y25629999D02*
X28959998Y25620001D01*
X8720000Y26629999D02*
X8770000D01*
X8780000Y26620001D01*
X12580000Y26820001D02*
X12770000Y26629999D01*
X11660000Y26820001D02*
X12580000D01*
X11470000Y26629999D02*
X11660000Y26820001D01*
X11220000D02*
X11410000Y26629999D01*
X10250000Y26820001D02*
X11220000D01*
X10070000Y26639999D02*
X10250000Y26820001D01*
X10070000Y26620001D02*
Y26639999D01*
X9850000Y26839999D02*
X10070000Y26620001D01*
X9000000Y26839999D02*
X9850000D01*
X8780000Y26620001D02*
X9000000Y26839999D01*
X17335397Y27715399D02*
X18098576D01*
X15870000Y26250000D02*
X17335397Y27715399D01*
X13480000Y26250000D02*
X15870000D01*
X13439999Y26210001D02*
X13480000Y26250000D01*
X9990795Y26210001D02*
X13439999D01*
X9575398Y26625397D02*
X9990795Y26210001D01*
X9066997Y26625397D02*
X9575398D01*
X10417002D02*
X10702400Y26339999D01*
X13350000D01*
X14979398Y27969397D01*
X18098576D01*
X14950000Y28229999D02*
X18091975D01*
X13345396Y26625397D02*
X14950000Y28229999D01*
X17021603Y27829999D02*
X18467178D01*
X13117001Y26625397D02*
X13345396D01*
X18091975Y28229999D02*
X18352577Y27969397D01*
X18467178Y27829999D02*
X18606577Y27969397D01*
X15817001Y26625397D02*
X17021603Y27829999D01*
X18860577Y27969397D02*
X18980000Y27849976D01*
Y27088397D02*
Y27849976D01*
X18517001Y26625397D02*
X18980000Y27088397D01*
X19114577Y27875345D02*
Y27969397D01*
Y27875345D02*
X19227676Y27762244D01*
Y27612323D02*
Y27762244D01*
Y27612323D02*
X19560001Y27279999D01*
X20562399D01*
X21217001Y26625397D01*
X19368578Y27969397D02*
X19497975Y27839999D01*
X22702399D01*
X23917001Y26625397D01*
X19622577Y27969397D02*
X19833179Y28179999D01*
X25062398D01*
X26617001Y26625397D01*
D12*
X8866322Y28816000D02*
D03*
X8866318Y27715399D02*
D03*
X18098576D02*
D03*
D13*
X8866322Y29070001D02*
D03*
X9120322Y28816000D02*
D03*
Y29070001D02*
D03*
X9374322Y28816000D02*
D03*
Y29070001D02*
D03*
X9628322Y28816000D02*
D03*
Y29070001D02*
D03*
X9882322Y28816000D02*
D03*
Y29070001D02*
D03*
X10136322Y28816000D02*
D03*
Y29070001D02*
D03*
X10390322Y28816000D02*
D03*
Y29070001D02*
D03*
X10644322Y28816000D02*
D03*
Y29070001D02*
D03*
X8866318Y27969397D02*
D03*
X9120318Y27715399D02*
D03*
Y27969397D02*
D03*
X9374318Y27715399D02*
D03*
Y27969397D02*
D03*
X9628318Y27715399D02*
D03*
Y27969397D02*
D03*
X9882318Y27715399D02*
D03*
Y27969397D02*
D03*
X10136318Y27715399D02*
D03*
Y27969397D02*
D03*
X10390318Y27715399D02*
D03*
Y27969397D02*
D03*
X10644318Y27715399D02*
D03*
Y27969397D02*
D03*
X18098576D02*
D03*
X18352577Y27715399D02*
D03*
Y27969397D02*
D03*
X18606577Y27715399D02*
D03*
Y27969397D02*
D03*
X18860577Y27715399D02*
D03*
Y27969397D02*
D03*
X19114577Y27715399D02*
D03*
Y27969397D02*
D03*
X19368578Y27715399D02*
D03*
Y27969397D02*
D03*
X19622577Y27715399D02*
D03*
Y27969397D02*
D03*
X19876578Y27715399D02*
D03*
Y27969397D02*
D03*
D14*
X10420000Y14630000D02*
D03*
Y13630000D02*
D03*
Y12620000D02*
D03*
Y11630000D02*
D03*
X9070000Y18639999D02*
D03*
X9080000Y19620000D02*
D03*
X9070000Y23630000D02*
D03*
Y22630000D02*
D03*
Y21630000D02*
D03*
Y20630000D02*
D03*
X9060000Y16630000D02*
D03*
X9070000Y17620000D02*
D03*
Y14620000D02*
D03*
X9080000Y13630000D02*
D03*
X9070000Y12630000D02*
D03*
Y11630000D02*
D03*
X10040000Y11610000D02*
D03*
X11390000D02*
D03*
X12739999D02*
D03*
X14089999D02*
D03*
X15439999D02*
D03*
X16789999D02*
D03*
X18139999D02*
D03*
X19489999D02*
D03*
X20839998D02*
D03*
X22189998D02*
D03*
X23539998D02*
D03*
X24889998D02*
D03*
X26239999D02*
D03*
X27589999D02*
D03*
X28939996D02*
D03*
X8690000Y11620000D02*
D03*
X10070000Y12620000D02*
D03*
X11420000D02*
D03*
X12770000D02*
D03*
X14120000D02*
D03*
X15470000D02*
D03*
X16820000D02*
D03*
X18170000D02*
D03*
X19520000D02*
D03*
X20870000D02*
D03*
X22219998D02*
D03*
X23569998D02*
D03*
X24919998D02*
D03*
X26269998D02*
D03*
X27619998D02*
D03*
X28969998D02*
D03*
X8720000Y12630000D02*
D03*
X10050000Y13639999D02*
D03*
X11400000D02*
D03*
X12749999D02*
D03*
X14099998D02*
D03*
X15449998D02*
D03*
X16799998D02*
D03*
X18149998D02*
D03*
X19499998D02*
D03*
X20849998D02*
D03*
X22199998D02*
D03*
X23549998D02*
D03*
X24899998D02*
D03*
X26249997D02*
D03*
X27599997D02*
D03*
X28949997D02*
D03*
X8700000Y13650000D02*
D03*
X10040000Y14620000D02*
D03*
X11390000D02*
D03*
X12739999D02*
D03*
X14089999D02*
D03*
X15439999D02*
D03*
X16789999D02*
D03*
X18139999D02*
D03*
X19489999D02*
D03*
X20839998D02*
D03*
X22189998D02*
D03*
X23539998D02*
D03*
X24889998D02*
D03*
X26239999D02*
D03*
X27589999D02*
D03*
X28939996D02*
D03*
X8690000Y14630000D02*
D03*
X10070000Y15620000D02*
D03*
X11420000D02*
D03*
X12770000D02*
D03*
X14120000D02*
D03*
X15470000D02*
D03*
X16820000D02*
D03*
X18170000D02*
D03*
X19520000D02*
D03*
X20870000D02*
D03*
X22219998D02*
D03*
X23569998D02*
D03*
X24919998D02*
D03*
X26269998D02*
D03*
X27619998D02*
D03*
X28969998D02*
D03*
X8720000Y15630000D02*
D03*
X10050000Y16620000D02*
D03*
X11400000D02*
D03*
X12749999D02*
D03*
X14099998D02*
D03*
X15449998D02*
D03*
X16799998D02*
D03*
X18149998D02*
D03*
X19499998D02*
D03*
X20849998D02*
D03*
X22199998D02*
D03*
X23549998D02*
D03*
X24899998D02*
D03*
X26249997D02*
D03*
X27599997D02*
D03*
X28949997D02*
D03*
X8700000Y16630000D02*
D03*
X10050000Y17610001D02*
D03*
X11400000D02*
D03*
X12749999D02*
D03*
X14099998D02*
D03*
X15449998D02*
D03*
X16799998D02*
D03*
X18149998D02*
D03*
X19499998D02*
D03*
X20849998D02*
D03*
X22199998D02*
D03*
X23549998D02*
D03*
X24899998D02*
D03*
X26249997D02*
D03*
X27599997D02*
D03*
X28949997D02*
D03*
X8700000Y17620000D02*
D03*
X10040000Y18620000D02*
D03*
X11390000D02*
D03*
X12739999D02*
D03*
X14089999D02*
D03*
X15439999D02*
D03*
X16789999D02*
D03*
X18139999D02*
D03*
X19489999D02*
D03*
X20839998D02*
D03*
X22189998D02*
D03*
X23539998D02*
D03*
X24889998D02*
D03*
X26239999D02*
D03*
X27589999D02*
D03*
X28939996D02*
D03*
X8690000Y18630000D02*
D03*
X10050000Y19610001D02*
D03*
X11400000D02*
D03*
X12749999D02*
D03*
X14099998D02*
D03*
X15449998D02*
D03*
X16799998D02*
D03*
X18149998D02*
D03*
X19499998D02*
D03*
X20849998D02*
D03*
X22199998D02*
D03*
X23549998D02*
D03*
X24899998D02*
D03*
X26249997D02*
D03*
X27599997D02*
D03*
X28949997D02*
D03*
X8700000Y19620000D02*
D03*
X10050000Y20620000D02*
D03*
X11400000D02*
D03*
X12749999D02*
D03*
X14099998D02*
D03*
X15449998D02*
D03*
X16799998D02*
D03*
X18149998D02*
D03*
X19499998D02*
D03*
X20849998D02*
D03*
X22199998D02*
D03*
X23549998D02*
D03*
X24899998D02*
D03*
X26249997D02*
D03*
X27599997D02*
D03*
X28949997D02*
D03*
X8700000Y20630000D02*
D03*
X10050000Y21620000D02*
D03*
X11400000D02*
D03*
X12749999D02*
D03*
X14099998D02*
D03*
X15449998D02*
D03*
X16799998D02*
D03*
X18149998D02*
D03*
X19499998D02*
D03*
X20849998D02*
D03*
X22199998D02*
D03*
X23549998D02*
D03*
X24899998D02*
D03*
X26249997D02*
D03*
X27599997D02*
D03*
X28949997D02*
D03*
X8700000Y21630000D02*
D03*
X10070000Y22630000D02*
D03*
X11420000D02*
D03*
X12770000D02*
D03*
X14120000D02*
D03*
X15470000D02*
D03*
X16820000D02*
D03*
X18170000D02*
D03*
X19520000D02*
D03*
X20870000D02*
D03*
X22219998D02*
D03*
X23569998D02*
D03*
X24919998D02*
D03*
X26269998D02*
D03*
X27619998D02*
D03*
X28969998D02*
D03*
X8720000Y22639999D02*
D03*
X10070000Y23630000D02*
D03*
X11420000D02*
D03*
X12770000D02*
D03*
X14120000D02*
D03*
X15470000D02*
D03*
X16820000D02*
D03*
X18170000D02*
D03*
X19520000D02*
D03*
X20870000D02*
D03*
X22219998D02*
D03*
X23569998D02*
D03*
X24919998D02*
D03*
X26269998D02*
D03*
X27619998D02*
D03*
X28969998D02*
D03*
X8720000Y23639999D02*
D03*
X10040000Y24620000D02*
D03*
X11390000D02*
D03*
X12739999D02*
D03*
X14089999D02*
D03*
X15439999D02*
D03*
X16789999D02*
D03*
X18139999D02*
D03*
X19489999D02*
D03*
X20839998D02*
D03*
X22189998D02*
D03*
X23539998D02*
D03*
X24889998D02*
D03*
X26239999D02*
D03*
X27589999D02*
D03*
X28939996D02*
D03*
X8690000Y24630000D02*
D03*
X10060000Y25620001D02*
D03*
X11410000D02*
D03*
X12760000D02*
D03*
X14109999D02*
D03*
X15459999D02*
D03*
X16809999D02*
D03*
X18159999D02*
D03*
X19509999D02*
D03*
X20859999D02*
D03*
X22209999D02*
D03*
X23559998D02*
D03*
X24909998D02*
D03*
X26259998D02*
D03*
X27609998D02*
D03*
X28959998D02*
D03*
X8710000Y25629999D02*
D03*
X8720000Y26629999D02*
D03*
X28969998Y26620001D02*
D03*
X27619998D02*
D03*
X26269998D02*
D03*
X24919998D02*
D03*
X23569998D02*
D03*
X22219998D02*
D03*
X20870000D02*
D03*
X19520000D02*
D03*
X18170000D02*
D03*
X16820000D02*
D03*
X15470000D02*
D03*
X14120000D02*
D03*
X12770000D02*
D03*
X11420000D02*
D03*
X10070000D02*
D03*
X26617001Y26625397D02*
D03*
X23917001D02*
D03*
X21217001D02*
D03*
X18517001D02*
D03*
X15817001D02*
D03*
X13117001D02*
D03*
X10417002D02*
D03*
X9066997D02*
D03*
%TF.MD5,af6d8cad353366fd81db1bd15e299c38*%
M02*
