G04 Layer_Color=255*
%FSLAX45Y45*%
%MOMM*%
%TF.FileFunction,Pads,Bot*%
%TF.Part,Single*%
G01*
G75*
%TA.AperFunction,ComponentPad*%
%ADD12C,1.50000*%
%ADD13R,1.50000X1.50000*%
D12*
X19876578Y27969397D02*
D03*
Y27715399D02*
D03*
X19622577Y27969397D02*
D03*
Y27715399D02*
D03*
X19368578Y27969397D02*
D03*
Y27715399D02*
D03*
X19114577Y27969397D02*
D03*
Y27715399D02*
D03*
X18860577Y27969397D02*
D03*
Y27715399D02*
D03*
X18606577Y27969397D02*
D03*
Y27715399D02*
D03*
X18352577Y27969397D02*
D03*
Y27715399D02*
D03*
X18098576Y27969397D02*
D03*
X10644318D02*
D03*
Y27715399D02*
D03*
X10390318Y27969397D02*
D03*
Y27715399D02*
D03*
X10136318Y27969397D02*
D03*
Y27715399D02*
D03*
X9882318Y27969397D02*
D03*
Y27715399D02*
D03*
X9628318Y27969397D02*
D03*
Y27715399D02*
D03*
X9374318Y27969397D02*
D03*
Y27715399D02*
D03*
X9120318Y27969397D02*
D03*
Y27715399D02*
D03*
X8866318Y27969397D02*
D03*
X10644322Y29070001D02*
D03*
Y28816000D02*
D03*
X10390322Y29070001D02*
D03*
Y28816000D02*
D03*
X10136322Y29070001D02*
D03*
Y28816000D02*
D03*
X9882322Y29070001D02*
D03*
Y28816000D02*
D03*
X9628322Y29070001D02*
D03*
Y28816000D02*
D03*
X9374322Y29070001D02*
D03*
Y28816000D02*
D03*
X9120322Y29070001D02*
D03*
Y28816000D02*
D03*
X8866322Y29070001D02*
D03*
D13*
X18098576Y27715399D02*
D03*
X8866318D02*
D03*
X8866322Y28816000D02*
D03*
%TF.MD5,f9f5b8ee7642d2933ca98006ff393a37*%
M02*
