G04 Layer_Color=16711935*
%FSLAX45Y45*%
%MOMM*%
%TF.FileFunction,Other,Board_Outline*%
%TF.Part,Single*%
G01*
G75*
%TA.AperFunction,NonConductor*%
%ADD16C,0.25400*%
%ADD22C,0.10000*%
D16*
X8300000Y11160000D02*
Y29450000D01*
Y11160000D02*
X29800000D01*
Y29450000D01*
X8300000D02*
X29800000D01*
D22*
X8872002Y11625402D02*
X8912001D01*
X8892002Y11605402D02*
Y11645402D01*
X10221996Y11625402D02*
X10261996D01*
X10241996Y11605402D02*
Y11645402D01*
X11571996Y11625402D02*
X11611996D01*
X11591996Y11605402D02*
Y11645402D01*
X12922002Y11625402D02*
X12962001D01*
X12942001Y11605402D02*
Y11645402D01*
X14271996Y11625402D02*
X14311996D01*
X14291995Y11605402D02*
Y11645402D01*
X15622002Y11625402D02*
X15662001D01*
X15642001Y11605402D02*
Y11645402D01*
X16972002Y11625402D02*
X17012001D01*
X16992001Y11605402D02*
Y11645402D01*
X18321996Y11625402D02*
X18361995D01*
X18341995Y11605402D02*
Y11645402D01*
X21022000Y11625402D02*
X21062000D01*
X21042000Y11605402D02*
Y11645402D01*
X22371996Y11625402D02*
X22411995D01*
X22391995Y11605402D02*
Y11645402D01*
X23722000Y11625402D02*
X23762000D01*
X23742000Y11605402D02*
Y11645402D01*
X25072000Y11625402D02*
X25112000D01*
X25092000Y11605402D02*
Y11645402D01*
X26421994Y11625402D02*
X26461993D01*
X26441995Y11605402D02*
Y11645402D01*
X8872002Y12625400D02*
X8912001D01*
X8892002Y12605400D02*
Y12645400D01*
X10222001Y12625400D02*
X10262001D01*
X10242001Y12605400D02*
Y12645400D01*
X11572001Y12625400D02*
X11612001D01*
X11592001Y12605400D02*
Y12645400D01*
X12922002Y12625400D02*
X12962001D01*
X12942001Y12605400D02*
Y12645400D01*
X15621996Y12625400D02*
X15661996D01*
X15641995Y12605400D02*
Y12645400D01*
X16971996Y12625400D02*
X17011995D01*
X16991995Y12605400D02*
Y12645400D01*
X18321996Y12625400D02*
X18361995D01*
X18341995Y12605400D02*
Y12645400D01*
X19672000Y12625400D02*
X19712000D01*
X19692000Y12605400D02*
Y12645400D01*
X21022000Y12625400D02*
X21062000D01*
X21042000Y12605400D02*
Y12645400D01*
X22372000Y12625400D02*
X22412000D01*
X22392000Y12605400D02*
Y12645400D01*
X23721996Y12625400D02*
X23761995D01*
X23741995Y12605400D02*
Y12645400D01*
X25072000Y12625400D02*
X25112000D01*
X25092000Y12605400D02*
Y12645400D01*
X26421994Y12625400D02*
X26461993D01*
X26441995Y12605400D02*
Y12645400D01*
X27771994Y12625400D02*
X27811993D01*
X27791995Y12605400D02*
Y12645400D01*
X29122000Y12625400D02*
X29162000D01*
X29141998Y12605400D02*
Y12645400D01*
X8871996Y13625398D02*
X8911996D01*
X8891996Y13605399D02*
Y13645398D01*
X10221996Y13625398D02*
X10261996D01*
X10241996Y13605399D02*
Y13645398D01*
X11572001Y13625398D02*
X11612001D01*
X11592001Y13605399D02*
Y13645398D01*
X12921996Y13625398D02*
X12961996D01*
X12941995Y13605399D02*
Y13645398D01*
X14271996Y13625398D02*
X14311996D01*
X14291995Y13605399D02*
Y13645398D01*
X15622002Y13625398D02*
X15662001D01*
X15642001Y13605399D02*
Y13645398D01*
X16972002Y13625398D02*
X17012001D01*
X16992001Y13605399D02*
Y13645398D01*
X18321996Y13625398D02*
X18361995D01*
X18341995Y13605399D02*
Y13645398D01*
X19672000Y13625398D02*
X19712000D01*
X19692000Y13605399D02*
Y13645398D01*
X21022000Y13625398D02*
X21062000D01*
X21042000Y13605399D02*
Y13645398D01*
X22372000Y13625398D02*
X22412000D01*
X22392000Y13605399D02*
Y13645398D01*
X23722000Y13625398D02*
X23762000D01*
X23742000Y13605399D02*
Y13645398D01*
X25072000Y13625398D02*
X25112000D01*
X25092000Y13605399D02*
Y13645398D01*
X26422000Y13625398D02*
X26462000D01*
X26441998Y13605399D02*
Y13645398D01*
X27772000Y13625398D02*
X27812000D01*
X27791998Y13605399D02*
Y13645398D01*
X29122000Y13625398D02*
X29162000D01*
X29141998Y13605399D02*
Y13645398D01*
X8872002Y14625401D02*
X8912001D01*
X8892002Y14605402D02*
Y14645401D01*
X10222001Y14625401D02*
X10262001D01*
X10242001Y14605402D02*
Y14645401D01*
X11572001Y14625401D02*
X11612001D01*
X11592001Y14605402D02*
Y14645401D01*
X12922002Y14625401D02*
X12962001D01*
X12942001Y14605402D02*
Y14645401D01*
X14272002Y14625401D02*
X14312001D01*
X14292001Y14605402D02*
Y14645401D01*
X15621996Y14625401D02*
X15661996D01*
X15641995Y14605402D02*
Y14645401D01*
X16971996Y14625401D02*
X17011995D01*
X16991995Y14605402D02*
Y14645401D01*
X18321996Y14625401D02*
X18361995D01*
X18341995Y14605402D02*
Y14645401D01*
X19671996Y14625401D02*
X19711995D01*
X19691995Y14605402D02*
Y14645401D01*
X21021996Y14625401D02*
X21061995D01*
X21041995Y14605402D02*
Y14645401D01*
X22371996Y14625401D02*
X22411995D01*
X22391995Y14605402D02*
Y14645401D01*
X23721996Y14625401D02*
X23761995D01*
X23741995Y14605402D02*
Y14645401D01*
X25071996Y14625401D02*
X25111993D01*
X25091995Y14605402D02*
Y14645401D01*
X26421994Y14625401D02*
X26461993D01*
X26441995Y14605402D02*
Y14645401D01*
X27772000Y14625401D02*
X27812000D01*
X27791998Y14605402D02*
Y14645401D01*
X29122000Y14625397D02*
X29162000D01*
X29141998Y14605396D02*
Y14645396D01*
X8872002Y15625398D02*
X8912001D01*
X8892002Y15605399D02*
Y15645399D01*
X10222001Y15625398D02*
X10262001D01*
X10242001Y15605399D02*
Y15645399D01*
X11572001Y15625398D02*
X11612001D01*
X11592001Y15605399D02*
Y15645399D01*
X12922002Y15625398D02*
X12962001D01*
X12942001Y15605399D02*
Y15645399D01*
X14271996Y15625398D02*
X14311996D01*
X14291995Y15605399D02*
Y15645399D01*
X15621996Y15625398D02*
X15661996D01*
X15641995Y15605399D02*
Y15645399D01*
X16971996Y15625398D02*
X17011995D01*
X16991995Y15605399D02*
Y15645399D01*
X18321996Y15625398D02*
X18361995D01*
X18341995Y15605399D02*
Y15645399D01*
X19672000Y15625398D02*
X19712000D01*
X19692000Y15605399D02*
Y15645399D01*
X21022000Y15625398D02*
X21062000D01*
X21042000Y15605399D02*
Y15645399D01*
X22371996Y15625398D02*
X22411995D01*
X22391995Y15605399D02*
Y15645399D01*
X23721996Y15625398D02*
X23761995D01*
X23741995Y15605399D02*
Y15645399D01*
X25072000Y15625398D02*
X25112000D01*
X25092000Y15605399D02*
Y15645399D01*
X26422000Y15625398D02*
X26462000D01*
X26441998Y15605399D02*
Y15645399D01*
X27772000Y15625398D02*
X27812000D01*
X27791998Y15605399D02*
Y15645399D01*
X29122000Y15625398D02*
X29162000D01*
X29141998Y15605399D02*
Y15645399D01*
X8871996Y16625397D02*
X8911996D01*
X8891996Y16605397D02*
Y16645396D01*
X10221996Y16625397D02*
X10261996D01*
X10241996Y16605397D02*
Y16645396D01*
X11571996Y16625397D02*
X11611996D01*
X11591996Y16605397D02*
Y16645396D01*
X12921996Y16625397D02*
X12961996D01*
X12941995Y16605397D02*
Y16645396D01*
X14271996Y16625397D02*
X14311996D01*
X14291995Y16605397D02*
Y16645396D01*
X15621996Y16625397D02*
X15661996D01*
X15641995Y16605397D02*
Y16645396D01*
X16971996Y16625397D02*
X17011995D01*
X16991995Y16605397D02*
Y16645396D01*
X18322000Y16625397D02*
X18362000D01*
X18342000Y16605397D02*
Y16645396D01*
X19672000Y16625397D02*
X19712000D01*
X19692000Y16605397D02*
Y16645396D01*
X21021996Y16625397D02*
X21061995D01*
X21041995Y16605397D02*
Y16645396D01*
X22372000Y16625397D02*
X22412000D01*
X22392000Y16605397D02*
Y16645396D01*
X23722000Y16625397D02*
X23762000D01*
X23742000Y16605397D02*
Y16645396D01*
X25072000Y16625397D02*
X25112000D01*
X25092000Y16605397D02*
Y16645396D01*
X26422000Y16625397D02*
X26462000D01*
X26441998Y16605397D02*
Y16645396D01*
X27772000Y16625397D02*
X27812000D01*
X27791998Y16605397D02*
Y16645396D01*
X29122000Y16625397D02*
X29162000D01*
X29141998Y16605397D02*
Y16645396D01*
X8872002Y17625395D02*
X8912001D01*
X8892002Y17605396D02*
Y17645395D01*
X10222001Y17625395D02*
X10262001D01*
X10242001Y17605396D02*
Y17645395D01*
X11572001Y17625395D02*
X11612001D01*
X11592001Y17605396D02*
Y17645395D01*
X12922002Y17625395D02*
X12962001D01*
X12942001Y17605396D02*
Y17645395D01*
X14272002Y17625395D02*
X14312001D01*
X14292001Y17605396D02*
Y17645395D01*
X15622002Y17625395D02*
X15662001D01*
X15642001Y17605396D02*
Y17645395D01*
X16972002Y17625395D02*
X17012001D01*
X16992001Y17605396D02*
Y17645395D01*
X18322000Y17625395D02*
X18362000D01*
X18342000Y17605396D02*
Y17645395D01*
X19672000Y17625395D02*
X19712000D01*
X19692000Y17605396D02*
Y17645395D01*
X21022000Y17625395D02*
X21062000D01*
X21042000Y17605396D02*
Y17645395D01*
X22372000Y17625395D02*
X22412000D01*
X22392000Y17605396D02*
Y17645395D01*
X23722000Y17625395D02*
X23762000D01*
X23742000Y17605396D02*
Y17645395D01*
X25072000Y17625395D02*
X25112000D01*
X25092000Y17605396D02*
Y17645395D01*
X26422000Y17625395D02*
X26462000D01*
X26441998Y17605396D02*
Y17645395D01*
X27772000Y17625395D02*
X27812000D01*
X27791998Y17605396D02*
Y17645395D01*
X29122000Y17625395D02*
X29162000D01*
X29141998Y17605396D02*
Y17645395D01*
X8871996Y18625398D02*
X8911996D01*
X8891996Y18605399D02*
Y18645398D01*
X10221996Y18625398D02*
X10261996D01*
X10241996Y18605399D02*
Y18645398D01*
X11571996Y18625398D02*
X11611996D01*
X11591996Y18605399D02*
Y18645398D01*
X12921996Y18625398D02*
X12961996D01*
X12941995Y18605399D02*
Y18645398D01*
X14271996Y18625398D02*
X14311996D01*
X14291995Y18605399D02*
Y18645398D01*
X15621996Y18625398D02*
X15661996D01*
X15641995Y18605399D02*
Y18645398D01*
X16972002Y18625398D02*
X17012001D01*
X16992001Y18605399D02*
Y18645398D01*
X18321996Y18625398D02*
X18361995D01*
X18341995Y18605399D02*
Y18645398D01*
X19671996Y18625398D02*
X19711995D01*
X19691995Y18605399D02*
Y18645398D01*
X21021996Y18625398D02*
X21061995D01*
X21041995Y18605399D02*
Y18645398D01*
X22371996Y18625398D02*
X22411995D01*
X22391995Y18605399D02*
Y18645398D01*
X23721996Y18625398D02*
X23761995D01*
X23741995Y18605399D02*
Y18645398D01*
X25071996Y18625398D02*
X25111993D01*
X25091995Y18605399D02*
Y18645398D01*
X26421994Y18625398D02*
X26461993D01*
X26441995Y18605399D02*
Y18645398D01*
X27771994Y18625398D02*
X27811993D01*
X27791995Y18605399D02*
Y18645398D01*
X29122000Y18625398D02*
X29162000D01*
X29141998Y18605399D02*
Y18645398D01*
X8871996Y19625397D02*
X8911996D01*
X8891996Y19605396D02*
Y19645396D01*
X10221996Y19625397D02*
X10261996D01*
X10241996Y19605396D02*
Y19645396D01*
X11571996Y19625397D02*
X11611996D01*
X11591996Y19605396D02*
Y19645396D01*
X12922002Y19625397D02*
X12962001D01*
X12942001Y19605396D02*
Y19645396D01*
X14271996Y19625397D02*
X14311996D01*
X14291995Y19605396D02*
Y19645396D01*
X15621996Y19625397D02*
X15661996D01*
X15641995Y19605396D02*
Y19645396D01*
X16971996Y19625397D02*
X17011995D01*
X16991995Y19605396D02*
Y19645396D01*
X18321996Y19625397D02*
X18361995D01*
X18341995Y19605396D02*
Y19645396D01*
X19672000Y19625397D02*
X19712000D01*
X19692000Y19605396D02*
Y19645396D01*
X21022000Y19625397D02*
X21062000D01*
X21042000Y19605396D02*
Y19645396D01*
X22372000Y19625397D02*
X22412000D01*
X22392000Y19605396D02*
Y19645396D01*
X23721996Y19625397D02*
X23761995D01*
X23741995Y19605396D02*
Y19645396D01*
X25071996Y19625397D02*
X25111993D01*
X25091995Y19605396D02*
Y19645396D01*
X26421994Y19625397D02*
X26461993D01*
X26441995Y19605396D02*
Y19645396D01*
X27771994Y19625397D02*
X27811993D01*
X27791995Y19605396D02*
Y19645396D01*
X29122000Y19625397D02*
X29162000D01*
X29141998Y19605396D02*
Y19645396D01*
X8871996Y20625394D02*
X8911996D01*
X8891996Y20605394D02*
Y20645393D01*
X10221996Y20625394D02*
X10261996D01*
X10241996Y20605394D02*
Y20645393D01*
X11571996Y20625394D02*
X11611996D01*
X11591996Y20605394D02*
Y20645393D01*
X12921996Y20625394D02*
X12961996D01*
X12941995Y20605394D02*
Y20645393D01*
X14272002Y20625394D02*
X14312001D01*
X14292001Y20605394D02*
Y20645393D01*
X15621996Y20625394D02*
X15661996D01*
X15641995Y20605394D02*
Y20645393D01*
X16971996Y20625394D02*
X17011995D01*
X16991995Y20605394D02*
Y20645393D01*
X18321996Y20625394D02*
X18361995D01*
X18341995Y20605394D02*
Y20645393D01*
X19671996Y20625394D02*
X19711995D01*
X19691995Y20605394D02*
Y20645393D01*
X21021996Y20625394D02*
X21061995D01*
X21041995Y20605394D02*
Y20645393D01*
X22371996Y20625394D02*
X22411995D01*
X22391995Y20605394D02*
Y20645393D01*
X23721996Y20625394D02*
X23761995D01*
X23741995Y20605394D02*
Y20645393D01*
X25071996Y20625394D02*
X25111993D01*
X25091995Y20605394D02*
Y20645393D01*
X26421994Y20625394D02*
X26461993D01*
X26441995Y20605394D02*
Y20645393D01*
X27771994Y20625394D02*
X27811993D01*
X27791995Y20605394D02*
Y20645393D01*
X29122000Y20625398D02*
X29162000D01*
X29141998Y20605399D02*
Y20645399D01*
X8872002Y21625397D02*
X8912001D01*
X8892002Y21605397D02*
Y21645396D01*
X10222001Y21625397D02*
X10262001D01*
X10242001Y21605397D02*
Y21645396D01*
X11571996Y21625397D02*
X11611996D01*
X11591996Y21605397D02*
Y21645396D01*
X12922002Y21625397D02*
X12962001D01*
X12942001Y21605397D02*
Y21645396D01*
X14272002Y21625397D02*
X14312001D01*
X14292001Y21605397D02*
Y21645396D01*
X15621996Y21625397D02*
X15661996D01*
X15641995Y21605397D02*
Y21645396D01*
X16971996Y21625397D02*
X17011995D01*
X16991995Y21605397D02*
Y21645396D01*
X18321996Y21625397D02*
X18361995D01*
X18341995Y21605397D02*
Y21645396D01*
X19671996Y21625397D02*
X19711995D01*
X19691995Y21605397D02*
Y21645396D01*
X21022000Y21625397D02*
X21062000D01*
X21042000Y21605397D02*
Y21645396D01*
X22371996Y21625397D02*
X22411995D01*
X22391995Y21605397D02*
Y21645396D01*
X23721996Y21625397D02*
X23761995D01*
X23741995Y21605397D02*
Y21645396D01*
X25071996Y21625397D02*
X25111993D01*
X25091995Y21605397D02*
Y21645396D01*
X26421994Y21625397D02*
X26461993D01*
X26441995Y21605397D02*
Y21645396D01*
X27771994Y21625397D02*
X27811993D01*
X27791995Y21605397D02*
Y21645396D01*
X29122000Y21625397D02*
X29162000D01*
X29141998Y21605397D02*
Y21645396D01*
X8872002Y22625395D02*
X8912001D01*
X8892002Y22605396D02*
Y22645395D01*
X10222001Y22625395D02*
X10262001D01*
X10242001Y22605396D02*
Y22645395D01*
X11572001Y22625395D02*
X11612001D01*
X11592001Y22605396D02*
Y22645395D01*
X12922002Y22625395D02*
X12962001D01*
X12942001Y22605396D02*
Y22645395D01*
X14272002Y22625395D02*
X14312001D01*
X14292001Y22605396D02*
Y22645395D01*
X15622002Y22625395D02*
X15662001D01*
X15642001Y22605396D02*
Y22645395D01*
X16972002Y22625395D02*
X17012001D01*
X16992001Y22605396D02*
Y22645395D01*
X18321996Y22625395D02*
X18361995D01*
X18341995Y22605396D02*
Y22645395D01*
X19672000Y22625395D02*
X19712000D01*
X19692000Y22605396D02*
Y22645395D01*
X21021996Y22625395D02*
X21061995D01*
X21041995Y22605396D02*
Y22645395D01*
X22371996Y22625395D02*
X22411995D01*
X22391995Y22605396D02*
Y22645395D01*
X23722000Y22625395D02*
X23762000D01*
X23742000Y22605396D02*
Y22645395D01*
X25072000Y22625395D02*
X25112000D01*
X25092000Y22605396D02*
Y22645395D01*
X26422000Y22625395D02*
X26462000D01*
X26441998Y22605396D02*
Y22645395D01*
X27772000Y22625395D02*
X27812000D01*
X27791998Y22605396D02*
Y22645395D01*
X29122000Y22625395D02*
X29162000D01*
X29141998Y22605396D02*
Y22645395D01*
X8872002Y23625394D02*
X8912001D01*
X8892002Y23605392D02*
Y23645393D01*
X10222001Y23625394D02*
X10262001D01*
X10242001Y23605392D02*
Y23645393D01*
X11571996Y23625394D02*
X11611996D01*
X11591996Y23605392D02*
Y23645393D01*
X12922002Y23625394D02*
X12962001D01*
X12942001Y23605392D02*
Y23645393D01*
X14271996Y23625394D02*
X14311996D01*
X14291995Y23605392D02*
Y23645393D01*
X15621996Y23625394D02*
X15661996D01*
X15641995Y23605392D02*
Y23645393D01*
X16971996Y23625394D02*
X17011995D01*
X16991995Y23605392D02*
Y23645393D01*
X18322000Y23625394D02*
X18362000D01*
X18342000Y23605392D02*
Y23645393D01*
X19671996Y23625394D02*
X19711995D01*
X19691995Y23605392D02*
Y23645393D01*
X21021996Y23625394D02*
X21061995D01*
X21041995Y23605392D02*
Y23645393D01*
X22371996Y23625394D02*
X22411995D01*
X22391995Y23605392D02*
Y23645393D01*
X23722000Y23625394D02*
X23762000D01*
X23742000Y23605392D02*
Y23645393D01*
X25072000Y23625394D02*
X25112000D01*
X25092000Y23605392D02*
Y23645393D01*
X26422000Y23625394D02*
X26462000D01*
X26441998Y23605392D02*
Y23645393D01*
X27772000Y23625394D02*
X27812000D01*
X27791998Y23605392D02*
Y23645393D01*
X29122000Y23625398D02*
X29162000D01*
X29141998Y23605399D02*
Y23645398D01*
X8871996Y24625397D02*
X8911996D01*
X8891996Y24605397D02*
Y24645396D01*
X10222001Y24625397D02*
X10262001D01*
X10242001Y24605397D02*
Y24645396D01*
X11572001Y24625397D02*
X11612001D01*
X11592001Y24605397D02*
Y24645396D01*
X12922002Y24625397D02*
X12962001D01*
X12942001Y24605397D02*
Y24645396D01*
X14272002Y24625397D02*
X14312001D01*
X14292001Y24605397D02*
Y24645396D01*
X15621996Y24625397D02*
X15661996D01*
X15641995Y24605397D02*
Y24645396D01*
X16971996Y24625397D02*
X17011995D01*
X16991995Y24605397D02*
Y24645396D01*
X18321996Y24625397D02*
X18361995D01*
X18341995Y24605397D02*
Y24645396D01*
X19672000Y24625397D02*
X19712000D01*
X19692000Y24605397D02*
Y24645396D01*
X21021996Y24625397D02*
X21061995D01*
X21041995Y24605397D02*
Y24645396D01*
X22372000Y24625397D02*
X22412000D01*
X22392000Y24605397D02*
Y24645396D01*
X23721996Y24625397D02*
X23761995D01*
X23741995Y24605397D02*
Y24645396D01*
X25071996Y24625397D02*
X25111993D01*
X25091995Y24605397D02*
Y24645396D01*
X26421994Y24625397D02*
X26461993D01*
X26441995Y24605397D02*
Y24645396D01*
X27771994Y24625397D02*
X27811993D01*
X27791995Y24605397D02*
Y24645396D01*
X29122000Y24625397D02*
X29162000D01*
X29141998Y24605397D02*
Y24645396D01*
X8872002Y25625394D02*
X8912001D01*
X8892002Y25605396D02*
Y25645395D01*
X10222001Y25625394D02*
X10262001D01*
X10242001Y25605396D02*
Y25645395D01*
X11572001Y25625394D02*
X11612001D01*
X11592001Y25605396D02*
Y25645395D01*
X12922002Y25625394D02*
X12962001D01*
X12942001Y25605396D02*
Y25645395D01*
X14272002Y25625394D02*
X14312001D01*
X14292001Y25605396D02*
Y25645395D01*
X15621996Y25625394D02*
X15661996D01*
X15641995Y25605396D02*
Y25645395D01*
X16971996Y25625394D02*
X17011995D01*
X16991995Y25605396D02*
Y25645395D01*
X18322000Y25625394D02*
X18362000D01*
X18342000Y25605396D02*
Y25645395D01*
X19672000Y25625394D02*
X19712000D01*
X19692000Y25605396D02*
Y25645395D01*
X21022000Y25625394D02*
X21062000D01*
X21042000Y25605396D02*
Y25645395D01*
X22371996Y25625394D02*
X22411995D01*
X22391995Y25605396D02*
Y25645395D01*
X23722000Y25625394D02*
X23762000D01*
X23742000Y25605396D02*
Y25645395D01*
X25071996Y25625394D02*
X25111993D01*
X25091995Y25605396D02*
Y25645395D01*
X26421994Y25625394D02*
X26461993D01*
X26441995Y25605396D02*
Y25645395D01*
X27771994Y25625394D02*
X27811993D01*
X27791995Y25605396D02*
Y25645395D01*
X29122000Y25625394D02*
X29162000D01*
X29141998Y25605396D02*
Y25645395D01*
X8871996Y26625397D02*
X8911996D01*
X8891996Y26605399D02*
Y26645398D01*
X10222001Y26625397D02*
X10262001D01*
X10242001Y26605399D02*
Y26645398D01*
X11572001Y26625397D02*
X11612001D01*
X11592001Y26605399D02*
Y26645398D01*
X12922002Y26625397D02*
X12962001D01*
X12942001Y26605399D02*
Y26645398D01*
X14272002Y26625397D02*
X14312001D01*
X14292001Y26605399D02*
Y26645398D01*
X15622002Y26625397D02*
X15662001D01*
X15642001Y26605399D02*
Y26645398D01*
X16972002Y26625397D02*
X17012001D01*
X16992001Y26605399D02*
Y26645398D01*
X18322000Y26625397D02*
X18362000D01*
X18342000Y26605399D02*
Y26645398D01*
X19672000Y26625397D02*
X19712000D01*
X19692000Y26605399D02*
Y26645398D01*
X21022000Y26625397D02*
X21062000D01*
X21042000Y26605399D02*
Y26645398D01*
X22371996Y26625397D02*
X22411995D01*
X22391995Y26605399D02*
Y26645398D01*
X23722000Y26625397D02*
X23762000D01*
X23742000Y26605399D02*
Y26645398D01*
X25072000Y26625397D02*
X25112000D01*
X25092000Y26605399D02*
Y26645398D01*
X26422000Y26625397D02*
X26462000D01*
X26441998Y26605399D02*
Y26645398D01*
X27771994Y26625397D02*
X27811993D01*
X27791995Y26605399D02*
Y26645398D01*
X29122000Y26625397D02*
X29162000D01*
X29141998Y26605399D02*
Y26645398D01*
X19672000Y11625402D02*
X19712000D01*
X19692000Y11605402D02*
Y11645402D01*
X29122000Y11625397D02*
X29162000D01*
X29141998Y11605397D02*
Y11645397D01*
X27772000Y11625402D02*
X27812000D01*
X27791998Y11605402D02*
Y11645402D01*
X14272002Y12625400D02*
X14312001D01*
X14292001Y12605400D02*
Y12645400D01*
%TF.MD5,561d01945dadf95774918fd122baa5eb*%
M02*
