G04 Layer_Physical_Order=1*
G04 Layer_Color=255*
%FSLAX45Y45*%
%MOMM*%
%TF.FileFunction,Copper,L1,Top,Signal*%
%TF.Part,Single*%
G01*
G75*
%TA.AperFunction,SMDPad,CuDef*%
%ADD10R,1.50000X1.50000*%
%TA.AperFunction,Conductor*%
%ADD11C,0.25400*%
%TA.AperFunction,ComponentPad*%
%ADD12C,1.50000*%
%ADD13R,1.50000X1.50000*%
%TA.AperFunction,ViaPad*%
%ADD14C,1.27000*%
D10*
X9067002Y11625402D02*
D03*
X8717001D02*
D03*
X10416997D02*
D03*
X10067000D02*
D03*
X11766997D02*
D03*
X11416995D02*
D03*
X13117001D02*
D03*
X12767000D02*
D03*
X14466997D02*
D03*
X14117000D02*
D03*
X15817001D02*
D03*
X15467000D02*
D03*
X17167001D02*
D03*
X16817000D02*
D03*
X18516995D02*
D03*
X18166998D02*
D03*
X21217001D02*
D03*
X20866998D02*
D03*
X22566995D02*
D03*
X22216998D02*
D03*
X23917001D02*
D03*
X23566998D02*
D03*
X25266995D02*
D03*
X24916998D02*
D03*
X26616995D02*
D03*
X26266992D02*
D03*
X9067002Y12625400D02*
D03*
X8717001D02*
D03*
X10417002D02*
D03*
X10067000D02*
D03*
X11767002D02*
D03*
X11417000D02*
D03*
X13117001D02*
D03*
X12767000D02*
D03*
X15816997D02*
D03*
X15466995D02*
D03*
X17166995D02*
D03*
X16816995D02*
D03*
X18516995D02*
D03*
X18166994D02*
D03*
X19867001D02*
D03*
X19516998D02*
D03*
X21217001D02*
D03*
X20866998D02*
D03*
X22567001D02*
D03*
X22216998D02*
D03*
X23916995D02*
D03*
X23566994D02*
D03*
X25267001D02*
D03*
X24916998D02*
D03*
X26616995D02*
D03*
X26266992D02*
D03*
X27966995D02*
D03*
X27616992D02*
D03*
X29317001D02*
D03*
X28966998D02*
D03*
X9066997Y13625398D02*
D03*
X8716996D02*
D03*
X10416997D02*
D03*
X10066995D02*
D03*
X11767002D02*
D03*
X11417000D02*
D03*
X13116997D02*
D03*
X12766995D02*
D03*
X14466997D02*
D03*
X14116995D02*
D03*
X15817001D02*
D03*
X15467000D02*
D03*
X17167001D02*
D03*
X16817000D02*
D03*
X18516995D02*
D03*
X18166994D02*
D03*
X19867001D02*
D03*
X19516998D02*
D03*
X21217001D02*
D03*
X20866998D02*
D03*
X22567001D02*
D03*
X22216998D02*
D03*
X23917001D02*
D03*
X23566998D02*
D03*
X25267001D02*
D03*
X24916998D02*
D03*
X26617001D02*
D03*
X26266998D02*
D03*
X27967001D02*
D03*
X27616998D02*
D03*
X29317001D02*
D03*
X28966998D02*
D03*
X9067002Y14625401D02*
D03*
X8717001D02*
D03*
X10417002D02*
D03*
X10067000D02*
D03*
X11767002D02*
D03*
X11417000D02*
D03*
X13117001D02*
D03*
X12767000D02*
D03*
X14467001D02*
D03*
X14117000D02*
D03*
X15816997D02*
D03*
X15466995D02*
D03*
X17166995D02*
D03*
X16816995D02*
D03*
X18516995D02*
D03*
X18166994D02*
D03*
X19866995D02*
D03*
X19516994D02*
D03*
X21216995D02*
D03*
X20866994D02*
D03*
X22566995D02*
D03*
X22216994D02*
D03*
X23916995D02*
D03*
X23566994D02*
D03*
X25266995D02*
D03*
X24916994D02*
D03*
X26616995D02*
D03*
X26266992D02*
D03*
X27967001D02*
D03*
X27616998D02*
D03*
X29317001Y14625397D02*
D03*
X28966998D02*
D03*
X9067002Y15625398D02*
D03*
X8717001D02*
D03*
X10417002D02*
D03*
X10067000D02*
D03*
X11767002D02*
D03*
X11417000D02*
D03*
X13117001D02*
D03*
X12767000D02*
D03*
X14466997D02*
D03*
X14116995D02*
D03*
X15816997D02*
D03*
X15466995D02*
D03*
X17166995D02*
D03*
X16816995D02*
D03*
X18516995D02*
D03*
X18166994D02*
D03*
X19867001D02*
D03*
X19516998D02*
D03*
X21217001D02*
D03*
X20866998D02*
D03*
X22566995D02*
D03*
X22216994D02*
D03*
X23916995D02*
D03*
X23566994D02*
D03*
X25267001D02*
D03*
X24916998D02*
D03*
X26617001D02*
D03*
X26266998D02*
D03*
X27967001D02*
D03*
X27616998D02*
D03*
X29317001D02*
D03*
X28966998D02*
D03*
X9066997Y16625397D02*
D03*
X8716996D02*
D03*
X10416997D02*
D03*
X10066995D02*
D03*
X11766997D02*
D03*
X11416995D02*
D03*
X13116997D02*
D03*
X12766995D02*
D03*
X14466997D02*
D03*
X14116995D02*
D03*
X15816997D02*
D03*
X15466995D02*
D03*
X17166995D02*
D03*
X16816995D02*
D03*
X18517001D02*
D03*
X18166998D02*
D03*
X19867001D02*
D03*
X19516998D02*
D03*
X21216995D02*
D03*
X20866994D02*
D03*
X22567001D02*
D03*
X22216998D02*
D03*
X23917001D02*
D03*
X23566998D02*
D03*
X25267001D02*
D03*
X24916998D02*
D03*
X26617001D02*
D03*
X26266998D02*
D03*
X27967001D02*
D03*
X27616998D02*
D03*
X29317001D02*
D03*
X28966998D02*
D03*
X9067002Y17625395D02*
D03*
X8717001D02*
D03*
X10417002D02*
D03*
X10067000D02*
D03*
X11767002D02*
D03*
X11417000D02*
D03*
X13117001D02*
D03*
X12767000D02*
D03*
X14467001D02*
D03*
X14117000D02*
D03*
X15817001D02*
D03*
X15467000D02*
D03*
X17167001D02*
D03*
X16817000D02*
D03*
X18517001D02*
D03*
X18166998D02*
D03*
X19867001D02*
D03*
X19516998D02*
D03*
X21217001D02*
D03*
X20866998D02*
D03*
X22567001D02*
D03*
X22216998D02*
D03*
X23917001D02*
D03*
X23566998D02*
D03*
X25267001D02*
D03*
X24916998D02*
D03*
X26617001D02*
D03*
X26266998D02*
D03*
X27967001D02*
D03*
X27616998D02*
D03*
X29317001D02*
D03*
X28966998D02*
D03*
X9066997Y18625398D02*
D03*
X8716996D02*
D03*
X10416997D02*
D03*
X10066995D02*
D03*
X11766997D02*
D03*
X11416995D02*
D03*
X13116997D02*
D03*
X12766995D02*
D03*
X14466997D02*
D03*
X14116995D02*
D03*
X15816997D02*
D03*
X15466995D02*
D03*
X17167001D02*
D03*
X16817000D02*
D03*
X18516995D02*
D03*
X18166994D02*
D03*
X19866995D02*
D03*
X19516994D02*
D03*
X21216995D02*
D03*
X20866994D02*
D03*
X22566995D02*
D03*
X22216994D02*
D03*
X23916995D02*
D03*
X23566994D02*
D03*
X25266995D02*
D03*
X24916994D02*
D03*
X26616995D02*
D03*
X26266992D02*
D03*
X27966995D02*
D03*
X27616992D02*
D03*
X29317001D02*
D03*
X28966998D02*
D03*
X9066997Y19625397D02*
D03*
X8716996D02*
D03*
X10416997D02*
D03*
X10066995D02*
D03*
X11766997D02*
D03*
X11416995D02*
D03*
X13117001D02*
D03*
X12767000D02*
D03*
X14466997D02*
D03*
X14116995D02*
D03*
X15816997D02*
D03*
X15466995D02*
D03*
X17166995D02*
D03*
X16816995D02*
D03*
X18516995D02*
D03*
X18166994D02*
D03*
X19867001D02*
D03*
X19516998D02*
D03*
X21217001D02*
D03*
X20866998D02*
D03*
X22567001D02*
D03*
X22216998D02*
D03*
X23916995D02*
D03*
X23566994D02*
D03*
X25266995D02*
D03*
X24916994D02*
D03*
X26616995D02*
D03*
X26266992D02*
D03*
X27966995D02*
D03*
X27616992D02*
D03*
X29317001D02*
D03*
X28966998D02*
D03*
X9066997Y20625394D02*
D03*
X8716996D02*
D03*
X10416997D02*
D03*
X10066995D02*
D03*
X11766997D02*
D03*
X11416995D02*
D03*
X13116997D02*
D03*
X12766995D02*
D03*
X14467001D02*
D03*
X14117000D02*
D03*
X15816997D02*
D03*
X15466995D02*
D03*
X17166995D02*
D03*
X16816995D02*
D03*
X18516995D02*
D03*
X18166994D02*
D03*
X19866995D02*
D03*
X19516994D02*
D03*
X21216995D02*
D03*
X20866994D02*
D03*
X22566995D02*
D03*
X22216994D02*
D03*
X23916995D02*
D03*
X23566994D02*
D03*
X25266995D02*
D03*
X24916994D02*
D03*
X26616995D02*
D03*
X26266992D02*
D03*
X27966995D02*
D03*
X27616992D02*
D03*
X29317001Y20625398D02*
D03*
X28966998D02*
D03*
X9067002Y21625397D02*
D03*
X8717001D02*
D03*
X10417002D02*
D03*
X10067000D02*
D03*
X11766997D02*
D03*
X11416995D02*
D03*
X13117001D02*
D03*
X12767000D02*
D03*
X14467001D02*
D03*
X14117000D02*
D03*
X15816997D02*
D03*
X15466995D02*
D03*
X17166995D02*
D03*
X16816995D02*
D03*
X18516995D02*
D03*
X18166994D02*
D03*
X19866995D02*
D03*
X19516994D02*
D03*
X21217001D02*
D03*
X20866998D02*
D03*
X22566995D02*
D03*
X22216994D02*
D03*
X23916995D02*
D03*
X23566994D02*
D03*
X25266995D02*
D03*
X24916994D02*
D03*
X26616995D02*
D03*
X26266992D02*
D03*
X27966995D02*
D03*
X27616992D02*
D03*
X29317001D02*
D03*
X28966998D02*
D03*
X9067002Y22625395D02*
D03*
X8717001D02*
D03*
X10417002D02*
D03*
X10067000D02*
D03*
X11767002D02*
D03*
X11417000D02*
D03*
X13117001D02*
D03*
X12767000D02*
D03*
X14467001D02*
D03*
X14117000D02*
D03*
X15817001D02*
D03*
X15467000D02*
D03*
X17167001D02*
D03*
X16817000D02*
D03*
X18516995D02*
D03*
X18166994D02*
D03*
X19867001D02*
D03*
X19516998D02*
D03*
X21216995D02*
D03*
X20866994D02*
D03*
X22566995D02*
D03*
X22216994D02*
D03*
X23917001D02*
D03*
X23566998D02*
D03*
X25267001D02*
D03*
X24916998D02*
D03*
X26617001D02*
D03*
X26266998D02*
D03*
X27967001D02*
D03*
X27616998D02*
D03*
X29317001D02*
D03*
X28966998D02*
D03*
X9067002Y23625394D02*
D03*
X8717001D02*
D03*
X10417002D02*
D03*
X10067000D02*
D03*
X11766997D02*
D03*
X11416995D02*
D03*
X13117001D02*
D03*
X12767000D02*
D03*
X14466997D02*
D03*
X14116995D02*
D03*
X15816997D02*
D03*
X15466995D02*
D03*
X17166995D02*
D03*
X16816995D02*
D03*
X18517001D02*
D03*
X18166998D02*
D03*
X19866995D02*
D03*
X19516994D02*
D03*
X21216995D02*
D03*
X20866994D02*
D03*
X22566995D02*
D03*
X22216994D02*
D03*
X23917001D02*
D03*
X23566998D02*
D03*
X25267001D02*
D03*
X24916998D02*
D03*
X26617001D02*
D03*
X26266998D02*
D03*
X27967001D02*
D03*
X27616998D02*
D03*
X29317001Y23625398D02*
D03*
X28966998D02*
D03*
X9066997Y24625397D02*
D03*
X8716996D02*
D03*
X10417002D02*
D03*
X10067000D02*
D03*
X11767002D02*
D03*
X11417000D02*
D03*
X13117001D02*
D03*
X12767000D02*
D03*
X14467001D02*
D03*
X14117000D02*
D03*
X15816997D02*
D03*
X15466995D02*
D03*
X17166995D02*
D03*
X16816995D02*
D03*
X18516995D02*
D03*
X18166994D02*
D03*
X19867001D02*
D03*
X19516998D02*
D03*
X21216995D02*
D03*
X20866994D02*
D03*
X22567001D02*
D03*
X22216998D02*
D03*
X23916995D02*
D03*
X23566994D02*
D03*
X25266995D02*
D03*
X24916994D02*
D03*
X26616995D02*
D03*
X26266992D02*
D03*
X27966995D02*
D03*
X27616992D02*
D03*
X29317001D02*
D03*
X28966998D02*
D03*
X9067002Y25625394D02*
D03*
X8717001D02*
D03*
X10417002D02*
D03*
X10067000D02*
D03*
X11767002D02*
D03*
X11417000D02*
D03*
X13117001D02*
D03*
X12767000D02*
D03*
X14467001D02*
D03*
X14117000D02*
D03*
X15816997D02*
D03*
X15466995D02*
D03*
X17166995D02*
D03*
X16816995D02*
D03*
X18517001D02*
D03*
X18166998D02*
D03*
X19867001D02*
D03*
X19516998D02*
D03*
X21217001D02*
D03*
X20866998D02*
D03*
X22566995D02*
D03*
X22216994D02*
D03*
X23917001D02*
D03*
X23566998D02*
D03*
X25266995D02*
D03*
X24916994D02*
D03*
X26616995D02*
D03*
X26266992D02*
D03*
X27966995D02*
D03*
X27616992D02*
D03*
X29317001D02*
D03*
X28966998D02*
D03*
X9066997Y26625397D02*
D03*
X8716996D02*
D03*
X10417002D02*
D03*
X10067000D02*
D03*
X11767002D02*
D03*
X11417000D02*
D03*
X13117001D02*
D03*
X12767000D02*
D03*
X14467001D02*
D03*
X14117000D02*
D03*
X15817001D02*
D03*
X15467000D02*
D03*
X17167001D02*
D03*
X16817000D02*
D03*
X18517001D02*
D03*
X18166998D02*
D03*
X19867001D02*
D03*
X19516998D02*
D03*
X21217001D02*
D03*
X20866998D02*
D03*
X22566995D02*
D03*
X22216994D02*
D03*
X23917001D02*
D03*
X23566998D02*
D03*
X25267001D02*
D03*
X24916998D02*
D03*
X26617001D02*
D03*
X26266998D02*
D03*
X27966995D02*
D03*
X27616992D02*
D03*
X29317001D02*
D03*
X28966998D02*
D03*
X19867001Y11625402D02*
D03*
X19516998D02*
D03*
X29317001Y11625397D02*
D03*
X28966998D02*
D03*
X27967001Y11625402D02*
D03*
X27616998D02*
D03*
X14467001Y12625400D02*
D03*
X14117000D02*
D03*
D11*
X8716996Y27566077D02*
X8866318Y27715399D01*
X8550000Y27653079D02*
X8866318Y27969397D01*
X8550000Y25792395D02*
Y27653079D01*
X8716996Y24625397D02*
X8940000Y24848401D01*
X9120318Y27560318D02*
Y27715399D01*
X9000000Y27570001D02*
Y27849081D01*
X8550000Y24839999D02*
X8860000Y25150000D01*
X8550000Y23792393D02*
Y24839999D01*
X9374318Y23282712D02*
Y27715399D01*
X9250000Y27779999D02*
X9374318Y27904318D01*
X9250000Y23339999D02*
Y27779999D01*
X8570000Y22800000D02*
X8650000Y22880000D01*
X8570000Y21772398D02*
Y22800000D01*
X8770000Y20870000D02*
X9490000Y21589999D01*
X8670000Y20870000D02*
X8770000D01*
X8560000Y20760001D02*
X8670000Y20870000D01*
X8560000Y19782391D02*
Y20760001D01*
X9628318Y21536716D02*
Y27715399D01*
X8716996Y20625394D02*
X9628318Y21536716D01*
X9741418Y27667133D02*
Y27781418D01*
X9740000Y27665714D02*
X9741418Y27667133D01*
X9740000Y19670000D02*
Y27665714D01*
X9200000Y19130000D02*
X9740000Y19670000D01*
X8810000Y19130000D02*
X9200000D01*
X8550000Y18870000D02*
X8810000Y19130000D01*
X8550000Y17792397D02*
Y18870000D01*
X9882318Y19612317D02*
Y27715399D01*
X9200000Y18930000D02*
X9882318Y19612317D01*
X9021597Y18930000D02*
X9200000D01*
X8716996Y18625398D02*
X9021597Y18930000D01*
X10010000Y27100000D02*
Y27843079D01*
Y27100000D02*
X10210000Y26900000D01*
Y17480000D02*
Y26900000D01*
X9840000Y17110001D02*
X10210000Y17480000D01*
X8840000Y17110001D02*
X9840000D01*
X8550000Y16820000D02*
X8840000Y17110001D01*
X8550000Y15792400D02*
Y16820000D01*
X10136318Y27463681D02*
Y27715399D01*
X9051598Y16960001D02*
X10020000D01*
X8716996Y16625397D02*
X9051598Y16960001D01*
X10020000D02*
X10290000Y17230000D01*
Y27310001D01*
X10136318Y27463681D02*
X10290000Y27310001D01*
X8717001Y11625402D02*
X9211598Y12120000D01*
X8866322Y27715402D02*
Y27809454D01*
X8866318Y27715399D02*
X8866322Y27715402D01*
X9120322D02*
Y27809454D01*
X9120318Y27715399D02*
X9120322Y27715402D01*
X9374318Y27715399D02*
X9374322Y27715402D01*
X9628322D02*
Y27809454D01*
X9628318Y27715399D02*
X9628322Y27715402D01*
X9741418Y27781418D02*
X9882318Y27922318D01*
X9882322Y27715402D02*
Y27809454D01*
X9882318Y27715399D02*
X9882322Y27715402D01*
X10530000Y27170001D02*
Y27761029D01*
X10644318Y27875345D01*
X10530000Y27170001D02*
X10930000Y26770001D01*
X10757418Y27828497D02*
Y28702905D01*
X10644318Y27715399D02*
X10757418Y27828497D01*
X10390318Y27715399D02*
Y27730319D01*
X10430000Y27770001D01*
X10300218Y27807455D02*
Y27879297D01*
X10270000Y27777240D02*
X10300218Y27807455D01*
X10270000Y27450000D02*
Y27777240D01*
Y27450000D02*
X10380000Y27339999D01*
Y26989999D02*
Y27339999D01*
Y26989999D02*
X10700000Y26670001D01*
X10840000Y14339999D02*
Y26689999D01*
X10440000Y13939999D02*
X10840000Y14339999D01*
X9890000Y13939999D02*
X10440000D01*
X9280000Y13330000D02*
X9890000Y13939999D01*
X8640000Y13330000D02*
X9280000D01*
X8530000Y13439999D02*
X8640000Y13330000D01*
X8530000Y13439999D02*
Y14438400D01*
X10450000Y27079999D02*
X10840000Y26689999D01*
X10390318Y27499683D02*
Y27715399D01*
Y27499683D02*
X10450000Y27439999D01*
Y27079999D02*
Y27439999D01*
X10644318Y27195682D02*
Y27715399D01*
Y27195682D02*
X11060000Y26779999D01*
Y12470000D02*
Y26779999D01*
X10510000Y11920000D02*
X11060000Y12470000D01*
X9840000Y11920000D02*
X10510000D01*
X9290000Y11370000D02*
X9840000Y11920000D01*
X8660000Y11370000D02*
X9290000D01*
X8540000Y11490000D02*
X8660000Y11370000D01*
X8540000Y11490000D02*
Y12448400D01*
X8717001Y12625400D01*
X9066997Y25625400D02*
Y26625397D01*
Y25625400D02*
X9067002Y25625394D01*
X8790000Y22880000D02*
X9250000Y23339999D01*
X8650000Y22880000D02*
X8790000D01*
X9066997Y19625397D02*
Y20625394D01*
Y17625400D02*
Y18625398D01*
Y17625400D02*
X9067002Y17625395D01*
X9066997Y14625406D02*
X9067002Y14625401D01*
X8860000Y27429999D02*
X9000000Y27570001D01*
X8940000Y27379999D02*
X9120318Y27560318D01*
X8860000Y25150000D02*
Y27429999D01*
X8940000Y24848401D02*
Y27379999D01*
X10700000Y14470000D02*
Y26670001D01*
X9341597Y14250000D02*
X10480000D01*
X10700000Y14470000D01*
X10417002Y21625397D02*
Y22625395D01*
Y23625394D01*
Y24625397D01*
Y25625394D01*
Y26625397D01*
X10930000Y12510000D02*
Y26770001D01*
X9211598Y12120000D02*
X10540000D01*
X10930000Y12510000D01*
X10416997Y12625405D02*
Y13625398D01*
Y12625405D02*
X10417002Y12625400D01*
X11766997Y26625394D02*
X11767002Y26625397D01*
X11766997Y18625398D02*
Y19625397D01*
Y20625394D01*
Y21625397D01*
X13117001Y11625402D02*
Y12625400D01*
Y14625401D02*
Y15625398D01*
Y21625397D02*
Y22625395D01*
Y23625394D01*
Y24625397D01*
Y25625394D01*
Y26625397D01*
X14466997Y26625394D02*
X14467001Y26625397D01*
X14466997Y15625398D02*
Y16625397D01*
Y18625398D02*
Y19625397D01*
X17167001Y17625395D02*
Y18625398D01*
X18516995Y11625402D02*
X18517001Y11625407D01*
Y16625397D02*
Y17625395D01*
Y25625394D02*
Y26625397D01*
X19867001Y11625402D02*
Y12625400D01*
Y13625398D01*
Y15625398D02*
Y16625397D01*
Y17625395D01*
Y24625397D02*
Y25625394D01*
Y26625397D01*
X21217001Y11625402D02*
Y12625400D01*
Y13625398D01*
Y25625394D02*
Y26625397D01*
X22566995Y14625401D02*
Y15625398D01*
Y20625394D02*
Y21625397D01*
Y22625395D01*
Y23625394D01*
Y25625394D02*
Y26625397D01*
X23917001Y16625397D02*
Y17625395D01*
Y22625395D02*
Y23625394D01*
Y25625394D02*
Y26625397D01*
X25266995Y26625394D02*
X25267001Y26625397D01*
X25266995Y18625398D02*
Y19625397D01*
Y20625394D01*
Y21625397D01*
Y24625397D02*
Y25625394D01*
Y26625394D01*
X26616995Y11625402D02*
X26617001Y11625407D01*
Y15625398D02*
Y16625397D01*
Y17625395D01*
Y22625395D02*
Y23625394D01*
X27966995Y26625397D02*
X27967001Y26625394D01*
Y13625398D02*
Y14625401D01*
Y15625398D01*
Y16625397D01*
Y17625395D01*
Y22625395D02*
Y23625394D01*
X29317001Y11625397D02*
Y12625400D01*
Y13625398D01*
Y14625397D01*
Y15625398D01*
Y16625397D01*
Y17625395D01*
Y18625398D01*
Y19625397D01*
Y20625398D01*
Y21625397D01*
Y22625395D01*
Y23625398D01*
Y24625397D01*
Y25625394D01*
Y26625397D01*
X18117178Y27479999D02*
X18352577Y27715399D01*
X14467001Y26625397D02*
X15201604Y27360001D01*
X18251180D01*
X18606577Y27715399D01*
X17167001Y26625397D02*
X17445398D01*
X18060001Y27239999D01*
X18385179D01*
X18860577Y27715399D01*
X19867001Y26625397D02*
Y26782999D01*
X19114577Y27535422D02*
X19867001Y26782999D01*
X19114577Y27535422D02*
Y27715399D01*
X19867001Y21625397D02*
Y22625395D01*
X21972392Y27220001D02*
X22566995Y26625397D01*
X19863976Y27220001D02*
X21972392D01*
X19368578Y27715399D02*
X19863976Y27220001D01*
X22566995Y13625398D02*
Y14625401D01*
X24502399Y27389999D02*
X25267001Y26625397D01*
X19947975Y27389999D02*
X24502399D01*
X19622577Y27715399D02*
X19947975Y27389999D01*
X25266995Y13625398D02*
Y14625401D01*
Y23625394D02*
Y24625397D01*
X19876578Y27715399D02*
X26876996D01*
X27966995Y26625397D01*
X27973001Y27969397D02*
X29317001Y26625397D01*
X19876578Y27969397D02*
X27973001D01*
X27967001Y21625397D02*
Y22625395D01*
X18517001D02*
Y23625394D01*
X15817001Y25625394D02*
Y26625397D01*
X12770000Y26629999D02*
X12790000D01*
X13010001Y26850000D01*
X13892398D01*
X15467000Y26667001D02*
X15589999Y26789999D01*
X16652397D01*
X18351602Y26810001D02*
X19332397D01*
X20866998Y26687000D02*
X21010001Y26829999D01*
X22012392D01*
X23595398Y26625397D02*
X23820000Y26850000D01*
X24692397D01*
X26266998Y26625397D02*
X26439999Y26798398D01*
X27443991D01*
X15467000Y26625397D02*
Y26667001D01*
X20866998Y26625397D02*
Y26687000D01*
X18166998Y26625397D02*
X18351602Y26810001D01*
X19332397D02*
X19516998Y26625397D01*
X27443991Y26798398D02*
X27616992Y26625397D01*
X22012392Y26829999D02*
X22216994Y26625397D01*
X13892398Y26850000D02*
X14117000Y26625397D01*
X16652397Y26789999D02*
X16817000Y26625397D01*
X24692397Y26850000D02*
X24916998Y26625397D01*
X10417002Y20625394D02*
Y21625397D01*
X12621604Y27479999D02*
X18117178D01*
X11767002Y26625397D02*
X12621604Y27479999D01*
X21217001Y24625397D02*
Y25625394D01*
X15817001Y21625397D02*
Y22625395D01*
X8866322Y28373679D02*
Y28816000D01*
Y28373679D02*
X8979418Y28260583D01*
X8866318Y27969397D02*
Y28193683D01*
X8680000Y28379999D02*
X8866318Y28193683D01*
X8680000Y28379999D02*
Y28883679D01*
X8866322Y29070001D01*
X9120322Y28389679D02*
Y28816000D01*
Y28389679D02*
X9233418Y28276584D01*
X10010000Y27843079D02*
X10136318Y27969397D01*
X10300218Y27879297D02*
X10390318Y27969397D01*
X10644318Y27875345D02*
Y27969397D01*
X10644322Y28816000D02*
X10757418Y28702905D01*
X10437460Y27762540D02*
X10480000Y27805081D01*
X10390322Y28816000D02*
X10480000Y28726321D01*
Y27805081D02*
Y27899133D01*
X10503418Y27922549D01*
Y28016245D01*
X10480000Y28039664D02*
X10503418Y28016245D01*
X10480000Y28039664D02*
Y28726321D01*
X10136318Y27715399D02*
X10230000Y27809082D01*
X10136322Y28816000D02*
X10230000Y28722321D01*
Y27809082D02*
Y27903134D01*
X10249418Y27922549D01*
Y28016245D01*
X10230000Y28035663D02*
X10249418Y28016245D01*
X10230000Y28035663D02*
Y28722321D01*
X9882322Y28816000D02*
X9940000Y28758322D01*
X9995418Y27922549D02*
Y28016245D01*
X9940000Y28071664D02*
X9995418Y28016245D01*
X9940000Y28071664D02*
Y28758322D01*
X9882322Y27809454D02*
X9995418Y27922549D01*
X9628322Y28816000D02*
X9680000Y28764322D01*
X9741418Y27922549D02*
Y28016245D01*
X9680000Y28077664D02*
X9741418Y28016245D01*
X9680000Y28077664D02*
Y28764322D01*
X9628322Y27809454D02*
X9741418Y27922549D01*
X13117001Y19625397D02*
Y21625397D01*
Y17625395D02*
Y19625397D01*
Y12625400D02*
Y14625401D01*
Y15625398D02*
Y17625395D01*
X22566995Y11625402D02*
Y13625398D01*
Y15625398D02*
Y18625398D01*
Y20625394D01*
Y23625394D02*
Y25625394D01*
X8550000Y25792395D02*
X8717001Y25625394D01*
X26617001Y13625398D02*
Y15625398D01*
Y11625407D02*
Y13625398D01*
Y17625395D02*
Y20625394D01*
Y22625395D01*
Y23625394D02*
Y26625397D01*
X11766997Y21625397D02*
Y23625394D01*
Y11625402D02*
Y13625398D01*
Y16625397D01*
Y18625398D01*
Y23625394D02*
Y26625394D01*
X19867001Y13625398D02*
Y15625398D01*
Y22625395D02*
Y24625397D01*
Y17625395D02*
Y19625397D01*
Y21625397D01*
X9066997Y14625406D02*
Y16625397D01*
X9067002Y21625397D02*
Y22625395D01*
Y23625394D02*
Y25625394D01*
X23917001Y13625398D02*
Y16625397D01*
Y11625402D02*
Y13625398D01*
Y20625394D02*
Y22625395D01*
Y17625395D02*
Y20625394D01*
Y23625394D02*
Y25625394D01*
X17167001Y11625402D02*
Y13625398D01*
Y17625395D01*
Y18625398D02*
Y22625395D01*
Y24625397D01*
Y26625397D01*
X21217001Y15625398D02*
Y17625395D01*
Y13625398D02*
Y15625398D01*
Y19625397D02*
Y21625397D01*
Y17625395D02*
Y19625397D01*
Y21625397D02*
Y24625397D01*
X15817001Y11625402D02*
Y13625398D01*
Y15625398D02*
Y17625395D01*
Y13625398D02*
Y15625398D01*
Y19625397D02*
Y21625397D01*
Y17625395D02*
Y19625397D01*
Y22625395D02*
Y25625394D01*
X8530000Y14438400D02*
X8717001Y14625401D01*
X10417002D02*
Y15625398D01*
Y17625395D02*
Y20625394D01*
Y15625398D02*
Y17625395D01*
X27967001Y11625402D02*
Y13625398D01*
Y23625394D02*
Y26625394D01*
Y19625397D02*
Y21625397D01*
Y17625395D02*
Y19625397D01*
X8716996Y26625397D02*
Y27566077D01*
X23566998Y26625397D02*
X23595398D01*
X18517001Y13625398D02*
Y16625397D01*
Y11625407D02*
Y13625398D01*
Y20625394D02*
Y22625395D01*
Y17625395D02*
Y20625394D01*
Y23625394D02*
Y25625394D01*
X14466997Y11625402D02*
Y13625398D01*
Y15625398D01*
Y16625397D02*
Y18625398D01*
Y19625397D02*
Y23625394D01*
Y26625394D01*
X25266995Y11625402D02*
Y13625398D01*
Y14625401D02*
Y18625398D01*
Y21625397D02*
Y23625394D01*
X8717001Y22625395D02*
X9374318Y23282712D01*
X9374322Y28816000D02*
X9460000Y28730322D01*
X9490000Y21589999D02*
Y27831079D01*
X9628318Y27969397D01*
X9374322Y27715402D02*
Y27809454D01*
X9487418Y27922549D01*
Y28016245D01*
X9460000Y28043661D02*
X9487418Y28016245D01*
X9460000Y28043661D02*
Y28730322D01*
X8866322Y27809454D02*
X8979418Y27922549D01*
Y28260583D01*
X9120322Y27809454D02*
X9233418Y27922549D01*
Y28276584D01*
X9007222Y28956900D02*
X9120322Y29070001D01*
X9007222Y28736374D02*
Y28956900D01*
Y28736374D02*
X9040000Y28703598D01*
Y28049716D02*
Y28703598D01*
Y28049716D02*
X9120318Y27969397D01*
X9000000Y27849081D02*
X9120318Y27969397D01*
X8550000Y23792393D02*
X8717001Y23625394D01*
X9374318Y27969397D02*
Y28656058D01*
X9261222Y28769153D02*
X9374318Y28656058D01*
X9261222Y28769153D02*
Y28956900D01*
X9374322Y29070001D01*
X8570000Y21772398D02*
X8717001Y21625397D01*
X9490000Y28931677D02*
X9628322Y29070001D01*
X9490000Y28779999D02*
Y28931677D01*
Y28779999D02*
X9628318Y28641684D01*
Y27969397D02*
Y28641684D01*
X8560000Y19782391D02*
X8716996Y19625397D01*
X9882318Y27969397D02*
Y28656058D01*
X9769222Y28769153D02*
X9882318Y28656058D01*
X9769222Y28769153D02*
Y28956900D01*
X9882322Y29070001D01*
X8550000Y17792397D02*
X8717001Y17625395D01*
X10000000Y28933679D02*
X10136322Y29070001D01*
X10000000Y28105716D02*
Y28933679D01*
Y28105716D02*
X10136318Y27969397D01*
X8550000Y15792400D02*
X8717001Y15625398D01*
X10390318Y27969397D02*
Y28656058D01*
X10277222Y28769153D02*
X10390318Y28656058D01*
X10277222Y28769153D02*
Y28956900D01*
X10390322Y29070001D01*
X8716996Y13625398D02*
X9341597Y14250000D01*
X10530000Y28955679D02*
X10644322Y29070001D01*
X10530000Y28748163D02*
Y28955679D01*
Y28748163D02*
X10530800Y28747363D01*
Y28729199D02*
Y28747363D01*
Y28729199D02*
X10644318Y28615683D01*
Y27969397D02*
Y28615683D01*
D12*
X19876578Y27969397D02*
D03*
Y27715399D02*
D03*
X19622577Y27969397D02*
D03*
Y27715399D02*
D03*
X19368578Y27969397D02*
D03*
Y27715399D02*
D03*
X19114577Y27969397D02*
D03*
Y27715399D02*
D03*
X18860577Y27969397D02*
D03*
Y27715399D02*
D03*
X18606577Y27969397D02*
D03*
Y27715399D02*
D03*
X18352577Y27969397D02*
D03*
Y27715399D02*
D03*
X18098576Y27969397D02*
D03*
X10644318D02*
D03*
Y27715399D02*
D03*
X10390318Y27969397D02*
D03*
Y27715399D02*
D03*
X10136318Y27969397D02*
D03*
Y27715399D02*
D03*
X9882318Y27969397D02*
D03*
Y27715399D02*
D03*
X9628318Y27969397D02*
D03*
Y27715399D02*
D03*
X9374318Y27969397D02*
D03*
Y27715399D02*
D03*
X9120318Y27969397D02*
D03*
Y27715399D02*
D03*
X8866318Y27969397D02*
D03*
X10644322Y29070001D02*
D03*
Y28816000D02*
D03*
X10390322Y29070001D02*
D03*
Y28816000D02*
D03*
X10136322Y29070001D02*
D03*
Y28816000D02*
D03*
X9882322Y29070001D02*
D03*
Y28816000D02*
D03*
X9628322Y29070001D02*
D03*
Y28816000D02*
D03*
X9374322Y29070001D02*
D03*
Y28816000D02*
D03*
X9120322Y29070001D02*
D03*
Y28816000D02*
D03*
X8866322Y29070001D02*
D03*
D13*
X18098576Y27715399D02*
D03*
X8866318D02*
D03*
X8866322Y28816000D02*
D03*
D14*
X9066997Y26625397D02*
D03*
X10417002D02*
D03*
X13117001D02*
D03*
X15817001D02*
D03*
X18517001D02*
D03*
X21217001D02*
D03*
X23917001D02*
D03*
X26617001D02*
D03*
X10070000Y26620001D02*
D03*
X11420000D02*
D03*
X12770000D02*
D03*
X14120000D02*
D03*
X15470000D02*
D03*
X16820000D02*
D03*
X18170000D02*
D03*
X19520000D02*
D03*
X20870000D02*
D03*
X22219998D02*
D03*
X23569998D02*
D03*
X24919998D02*
D03*
X26269998D02*
D03*
X27619998D02*
D03*
X28969998D02*
D03*
X8720000Y26629999D02*
D03*
X8710000Y25629999D02*
D03*
X28959998Y25620001D02*
D03*
X27609998D02*
D03*
X26259998D02*
D03*
X24909998D02*
D03*
X23559998D02*
D03*
X22209999D02*
D03*
X20859999D02*
D03*
X19509999D02*
D03*
X18159999D02*
D03*
X16809999D02*
D03*
X15459999D02*
D03*
X14109999D02*
D03*
X12760000D02*
D03*
X11410000D02*
D03*
X10060000D02*
D03*
X8690000Y24630000D02*
D03*
X28939996Y24620000D02*
D03*
X27589999D02*
D03*
X26239999D02*
D03*
X24889998D02*
D03*
X23539998D02*
D03*
X22189998D02*
D03*
X20839998D02*
D03*
X19489999D02*
D03*
X18139999D02*
D03*
X16789999D02*
D03*
X15439999D02*
D03*
X14089999D02*
D03*
X12739999D02*
D03*
X11390000D02*
D03*
X10040000D02*
D03*
X8720000Y23639999D02*
D03*
X28969998Y23630000D02*
D03*
X27619998D02*
D03*
X26269998D02*
D03*
X24919998D02*
D03*
X23569998D02*
D03*
X22219998D02*
D03*
X20870000D02*
D03*
X19520000D02*
D03*
X18170000D02*
D03*
X16820000D02*
D03*
X15470000D02*
D03*
X14120000D02*
D03*
X12770000D02*
D03*
X11420000D02*
D03*
X10070000D02*
D03*
X8720000Y22639999D02*
D03*
X28969998Y22630000D02*
D03*
X27619998D02*
D03*
X26269998D02*
D03*
X24919998D02*
D03*
X23569998D02*
D03*
X22219998D02*
D03*
X20870000D02*
D03*
X19520000D02*
D03*
X18170000D02*
D03*
X16820000D02*
D03*
X15470000D02*
D03*
X14120000D02*
D03*
X12770000D02*
D03*
X11420000D02*
D03*
X10070000D02*
D03*
X8700000Y21630000D02*
D03*
X28949997Y21620000D02*
D03*
X27599997D02*
D03*
X26249997D02*
D03*
X24899998D02*
D03*
X23549998D02*
D03*
X22199998D02*
D03*
X20849998D02*
D03*
X19499998D02*
D03*
X18149998D02*
D03*
X16799998D02*
D03*
X15449998D02*
D03*
X14099998D02*
D03*
X12749999D02*
D03*
X11400000D02*
D03*
X10050000D02*
D03*
X8700000Y20630000D02*
D03*
X28949997Y20620000D02*
D03*
X27599997D02*
D03*
X26249997D02*
D03*
X24899998D02*
D03*
X23549998D02*
D03*
X22199998D02*
D03*
X20849998D02*
D03*
X19499998D02*
D03*
X18149998D02*
D03*
X16799998D02*
D03*
X15449998D02*
D03*
X14099998D02*
D03*
X12749999D02*
D03*
X11400000D02*
D03*
X10050000D02*
D03*
X8700000Y19620000D02*
D03*
X28949997Y19610001D02*
D03*
X27599997D02*
D03*
X26249997D02*
D03*
X24899998D02*
D03*
X23549998D02*
D03*
X22199998D02*
D03*
X20849998D02*
D03*
X19499998D02*
D03*
X18149998D02*
D03*
X16799998D02*
D03*
X15449998D02*
D03*
X14099998D02*
D03*
X12749999D02*
D03*
X11400000D02*
D03*
X10050000D02*
D03*
X8690000Y18630000D02*
D03*
X28939996Y18620000D02*
D03*
X27589999D02*
D03*
X26239999D02*
D03*
X24889998D02*
D03*
X23539998D02*
D03*
X22189998D02*
D03*
X20839998D02*
D03*
X19489999D02*
D03*
X18139999D02*
D03*
X16789999D02*
D03*
X15439999D02*
D03*
X14089999D02*
D03*
X12739999D02*
D03*
X11390000D02*
D03*
X10040000D02*
D03*
X8700000Y17620000D02*
D03*
X28949997Y17610001D02*
D03*
X27599997D02*
D03*
X26249997D02*
D03*
X24899998D02*
D03*
X23549998D02*
D03*
X22199998D02*
D03*
X20849998D02*
D03*
X19499998D02*
D03*
X18149998D02*
D03*
X16799998D02*
D03*
X15449998D02*
D03*
X14099998D02*
D03*
X12749999D02*
D03*
X11400000D02*
D03*
X10050000D02*
D03*
X8700000Y16630000D02*
D03*
X28949997Y16620000D02*
D03*
X27599997D02*
D03*
X26249997D02*
D03*
X24899998D02*
D03*
X23549998D02*
D03*
X22199998D02*
D03*
X20849998D02*
D03*
X19499998D02*
D03*
X18149998D02*
D03*
X16799998D02*
D03*
X15449998D02*
D03*
X14099998D02*
D03*
X12749999D02*
D03*
X11400000D02*
D03*
X10050000D02*
D03*
X8720000Y15630000D02*
D03*
X28969998Y15620000D02*
D03*
X27619998D02*
D03*
X26269998D02*
D03*
X24919998D02*
D03*
X23569998D02*
D03*
X22219998D02*
D03*
X20870000D02*
D03*
X19520000D02*
D03*
X18170000D02*
D03*
X16820000D02*
D03*
X15470000D02*
D03*
X14120000D02*
D03*
X12770000D02*
D03*
X11420000D02*
D03*
X10070000D02*
D03*
X8690000Y14630000D02*
D03*
X28939996Y14620000D02*
D03*
X27589999D02*
D03*
X26239999D02*
D03*
X24889998D02*
D03*
X23539998D02*
D03*
X22189998D02*
D03*
X20839998D02*
D03*
X19489999D02*
D03*
X18139999D02*
D03*
X16789999D02*
D03*
X15439999D02*
D03*
X14089999D02*
D03*
X12739999D02*
D03*
X11390000D02*
D03*
X10040000D02*
D03*
X8700000Y13650000D02*
D03*
X28949997Y13639999D02*
D03*
X27599997D02*
D03*
X26249997D02*
D03*
X24899998D02*
D03*
X23549998D02*
D03*
X22199998D02*
D03*
X20849998D02*
D03*
X19499998D02*
D03*
X18149998D02*
D03*
X16799998D02*
D03*
X15449998D02*
D03*
X14099998D02*
D03*
X12749999D02*
D03*
X11400000D02*
D03*
X10050000D02*
D03*
X8720000Y12630000D02*
D03*
X28969998Y12620000D02*
D03*
X27619998D02*
D03*
X26269998D02*
D03*
X24919998D02*
D03*
X23569998D02*
D03*
X22219998D02*
D03*
X20870000D02*
D03*
X19520000D02*
D03*
X18170000D02*
D03*
X16820000D02*
D03*
X15470000D02*
D03*
X14120000D02*
D03*
X12770000D02*
D03*
X11420000D02*
D03*
X10070000D02*
D03*
X8690000Y11620000D02*
D03*
X28939996Y11610000D02*
D03*
X27589999D02*
D03*
X26239999D02*
D03*
X24889998D02*
D03*
X23539998D02*
D03*
X22189998D02*
D03*
X20839998D02*
D03*
X19489999D02*
D03*
X18139999D02*
D03*
X16789999D02*
D03*
X15439999D02*
D03*
X14089999D02*
D03*
X12739999D02*
D03*
X11390000D02*
D03*
X10040000D02*
D03*
X9070000Y11630000D02*
D03*
Y12630000D02*
D03*
X9080000Y13630000D02*
D03*
X9070000Y14620000D02*
D03*
Y17620000D02*
D03*
X9060000Y16630000D02*
D03*
X9070000Y20630000D02*
D03*
Y21630000D02*
D03*
Y22630000D02*
D03*
Y23630000D02*
D03*
X9080000Y19620000D02*
D03*
X9070000Y18639999D02*
D03*
X10420000Y11630000D02*
D03*
Y12620000D02*
D03*
Y13630000D02*
D03*
Y14630000D02*
D03*
%TF.MD5,197d9dbd3e91bb5cf45736956960df15*%
M02*
